HIERARCHY
ROOT root
{
	OFFSET 0.000000 0.000000 0.000000
	CHANNELS 6 Xposition Yposition Zposition Zrotation Yrotation Xrotation
	JOINT lhip
	{
		OFFSET 0.058581 -0.082280 -0.017664
		CHANNELS 3 Zrotation Yrotation Xrotation
		JOINT lknee
		{
			OFFSET 0.043451 -0.386469 0.008037
			CHANNELS 3 Zrotation Yrotation Xrotation
			JOINT lankle
			{
				OFFSET -0.014790 -0.426874 -0.037428
				CHANNELS 3 Zrotation Yrotation Xrotation
				JOINT ltoe
				{
					OFFSET 0.041054 -0.060286 0.122042
					CHANNELS 3 Zrotation Yrotation Xrotation
					End Site
					{
						OFFSET 0.000000 0.000000 0.000000
					}
				}
			}
		}
	}
	JOINT rhip
	{
		OFFSET -0.060310 -0.090513 -0.013543
		CHANNELS 3 Zrotation Yrotation Xrotation
		JOINT rknee
		{
			OFFSET -0.043257 -0.383688 -0.004843
			CHANNELS 3 Zrotation Yrotation Xrotation
			JOINT rankle
			{
				OFFSET 0.019056 -0.420046 -0.034562
				CHANNELS 3 Zrotation Yrotation Xrotation
				JOINT rtoe
				{
					OFFSET -0.034840 -0.062106 0.130323
					CHANNELS 3 Zrotation Yrotation Xrotation
					End Site
					{
						OFFSET 0.000000 0.000000 0.000000
					}
				}
			}
		}
	}
	JOINT lowerback
	{
		OFFSET 0.004439 0.124404 -0.038385
		CHANNELS 3 Zrotation Yrotation Xrotation
		JOINT upperback
		{
			OFFSET 0.004488 0.137956 0.026820
			CHANNELS 3 Zrotation Yrotation Xrotation
			JOINT chest
			{
				OFFSET -0.002265 0.056032 0.002855
				CHANNELS 3 Zrotation Yrotation Xrotation
				JOINT lowerneck
				{
					OFFSET -0.013390 0.211636 -0.033468
					CHANNELS 3 Zrotation Yrotation Xrotation
					JOINT upperneck
					{
						OFFSET 0.010113 0.088937 0.050410
						CHANNELS 3 Zrotation Yrotation Xrotation
						End Site
						{
							OFFSET 0.000000 0.000000 0.000000
						}
					}
				}
				JOINT lclavicle
				{
					OFFSET 0.071702 0.114000 -0.018898
					CHANNELS 3 Zrotation Yrotation Xrotation
					JOINT lshoulder
					{
						OFFSET 0.122921 0.045205 -0.019046
						CHANNELS 3 Zrotation Yrotation Xrotation
						JOINT lelbow
						{
							OFFSET 0.255332 -0.015649 -0.022946
							CHANNELS 3 Zrotation Yrotation Xrotation
							JOINT lwrist
							{
								OFFSET 0.265709 0.012698 -0.007375
								CHANNELS 3 Zrotation Yrotation Xrotation
								End Site
								{
									OFFSET 0.000000 0.000000 0.000000
								}
							}
						}
					}
				}
				JOINT rclavicle
				{
					OFFSET -0.082954 0.112472 -0.023707
					CHANNELS 3 Zrotation Yrotation Xrotation
					JOINT rshoulder
					{
						OFFSET -0.113228 0.046853 -0.008472
						CHANNELS 3 Zrotation Yrotation Xrotation
						JOINT relbow
						{
							OFFSET -0.260127 -0.014369 -0.031269
							CHANNELS 3 Zrotation Yrotation Xrotation
							JOINT rwrist
							{
								OFFSET -0.269108 0.006794 -0.006027
								CHANNELS 3 Zrotation Yrotation Xrotation
								End Site
								{
									OFFSET 0.000000 0.000000 0.000000
								}
							}
						}
					}
				}
			}
		}
	}
}
MOTION
Frames: 15
Frame Time: 0.033333
-0.029997 -0.698427 0.503685 171.178124 1.991569 122.071277 16.084205 14.206642 -48.198514 -2.154607 17.259964 120.745361 -11.043269 8.646283 12.785496 0.000000 -0.000000 0.000000 -22.304164 -11.704776 -34.768444 -5.883450 -0.238993 103.777761 -1.274016 -20.453470 -14.158418 0.000000 -0.000000 0.000000 -8.739172 8.098358 67.664901 3.929640 -8.494508 -7.967776 5.677127 -6.031368 -4.307668 -17.292514 10.073016 -24.328794 -3.988263 -0.771406 -7.837838 9.978503 -27.510595 -6.401151 14.820651 -3.109723 -27.585606 4.173192 -31.691006 -30.203229 30.611960 -17.520510 -17.183782 7.924121 29.269836 -8.760141 36.341893 23.711394 11.305999 -24.949814 46.507033 -38.421060 -36.231177 7.886394 -26.381718 
-0.024716 -0.700077 0.502925 168.949912 1.515491 122.262282 15.772913 15.605477 -47.343555 -1.829822 17.774292 120.742305 -10.991099 6.746879 11.597307 0.000000 -0.000000 0.000000 -23.115306 -10.984078 -36.359761 -6.787294 0.418079 105.198984 -0.747935 -19.077021 -15.244603 0.000000 -0.000000 0.000000 -8.342360 7.366117 67.015548 3.074066 -8.674784 -8.297586 4.860016 -6.064436 -3.874165 -16.481093 9.232011 -23.769978 -5.250319 1.919815 -6.751789 6.521419 -22.739127 -5.444693 9.306332 -3.754869 -26.012252 9.318762 -41.461026 -30.897949 30.267087 -17.899913 -16.335014 7.322216 27.199788 -9.598829 39.098839 25.918932 12.313568 -25.521334 47.866161 -40.158340 -35.317784 9.844294 -23.581719 
-0.021876 -0.699103 0.503413 167.240525 0.646163 121.786820 15.158174 15.674439 -45.665969 -1.608953 18.502519 120.462233 -11.267266 5.907617 11.177123 0.000000 -0.000000 0.000000 -24.315300 -10.889533 -36.475111 -7.007266 1.100253 105.549858 -0.904011 -18.200390 -15.529819 0.000000 -0.000000 0.000000 -7.890711 5.919285 67.429821 2.073404 -8.284918 -9.112355 4.290448 -6.475564 -3.384990 -15.990110 7.895297 -21.712186 -5.749704 4.886355 -6.910856 1.651591 -19.129219 -1.806018 3.606563 -2.580376 -23.815664 18.789236 -51.420627 -34.096358 32.376533 -18.024638 -17.027385 7.568488 25.998501 -9.250442 39.861393 27.777458 12.172162 -25.186044 49.707325 -39.550315 -35.791397 10.609935 -21.610977 
-0.017848 -0.702825 0.506689 166.423704 -0.102484 123.338040 15.078863 14.822691 -46.601279 -0.923216 20.105002 121.098308 -10.489589 5.507235 11.061834 0.000000 -0.000000 0.000000 -25.034236 -10.975229 -38.111155 -7.339837 0.436262 105.813708 -1.229335 -18.843105 -15.589463 0.000000 -0.000000 0.000000 -6.396877 3.654765 64.803032 1.046828 -8.036980 -8.931192 3.035538 -7.029985 -2.804428 -14.650639 6.106309 -20.144267 -6.579199 7.795727 -6.660679 -3.507631 -15.810465 0.494037 -1.554021 -2.575797 -20.517373 31.141920 -59.010396 -39.141894 35.024759 -17.775341 -15.976454 9.433973 25.158141 -7.867464 38.501879 29.285526 12.033782 -24.268654 51.147323 -38.446043 -37.480854 11.157080 -21.168331 
-0.011771 -0.703550 0.509395 163.676772 -1.168069 123.877265 14.340423 14.919418 -45.058597 -0.140990 21.554042 121.130016 -10.836829 4.613916 11.243647 0.000000 -0.000000 0.000000 -26.308038 -10.714460 -39.568085 -7.625407 1.604971 105.886333 -0.844537 -19.407201 -15.998182 0.000000 -0.000000 0.000000 -9.571785 2.645398 64.226959 -0.028943 -5.583812 -10.900625 2.936204 -6.524599 -1.244770 -12.970810 5.286418 -19.679779 -7.038869 9.711642 -4.891363 -6.953077 -11.844408 1.875823 -7.246705 -3.807367 -18.338266 39.505251 -65.414978 -42.177114 34.207866 -15.496603 -17.705170 10.427703 23.162389 -6.996514 38.879423 31.670754 12.651281 -23.380227 52.288749 -36.771195 -38.663487 11.469505 -20.217176 
-0.005787 -0.706534 0.510594 162.029390 -1.624192 125.194369 14.609275 14.874916 -45.200350 0.480819 22.800804 121.657224 -10.616707 3.939089 11.639596 0.000000 -0.000000 0.000000 -26.835261 -10.184287 -41.532196 -8.143106 1.707665 106.400585 -1.433814 -19.918281 -16.107849 0.000000 -0.000000 0.000000 -9.324561 1.367096 61.637714 -0.920441 -4.714581 -10.595502 1.900920 -6.470242 -0.911233 -11.980485 4.809050 -17.894805 -7.048519 11.463232 -4.703302 -10.071974 -9.293954 3.213970 -11.569557 -4.408455 -15.227185 42.441806 -70.010654 -43.519148 31.480653 -11.564168 -23.461263 11.241682 21.929367 -5.404241 39.194267 33.768744 13.270712 -23.201237 52.737982 -35.653505 -40.839750 11.665062 -19.977544 
0.000602 -0.709056 0.512337 160.689649 -1.725293 126.612785 15.425923 14.825767 -45.247363 1.118517 23.809758 122.171013 -10.111188 2.824620 11.272769 0.000000 -0.000000 0.000000 -26.954946 -9.541538 -43.550554 -8.588143 1.362851 106.834594 -1.882821 -20.426752 -16.224656 0.000000 -0.000000 0.000000 -8.030519 0.740893 58.639449 -1.453765 -4.307409 -9.626800 1.039184 -6.596292 -1.026639 -11.412565 4.722892 -15.840126 -7.407534 12.969910 -5.045158 -12.318879 -8.285873 4.402167 -15.441016 -5.321565 -12.161968 34.379244 -71.890960 -35.208292 28.564099 -9.287895 -28.198525 11.626110 21.087567 -4.191814 39.859744 35.135856 14.125243 -23.556824 52.779123 -34.923006 -42.108163 11.839170 -19.539539 
0.007093 -0.709783 0.514409 159.362381 -1.891446 127.279650 15.912536 14.827374 -44.551494 1.184853 24.606629 122.323729 -9.372408 2.222201 10.319750 0.000000 -0.000000 0.000000 -27.170036 -8.812245 -44.619362 -8.593974 1.139223 106.970598 -2.170860 -21.098508 -16.279577 0.000000 -0.000000 0.000000 -7.090630 0.507078 56.674849 -1.640428 -3.981193 -8.693329 0.484497 -6.887520 -1.188119 -10.714232 4.980300 -15.012384 -8.145733 14.808931 -4.424724 -14.925500 -8.824445 5.315194 -17.300367 -5.793455 -9.653092 22.208182 -71.075980 -24.109191 26.581406 -7.911732 -30.432538 12.085536 21.080130 -3.382519 40.251689 35.868625 15.361307 -25.064239 52.588404 -36.103710 -41.474880 11.995319 -17.895635 
0.012569 -0.710093 0.516173 158.077198 -2.272133 127.975161 15.646616 15.006305 -44.240268 0.869040 25.366603 122.275076 -8.444968 2.441681 8.739843 0.000000 -0.000000 0.000000 -27.737370 -8.225059 -45.511695 -8.542574 0.917367 107.077074 -1.977058 -21.588005 -16.542807 0.000000 -0.000000 0.000000 -6.219148 0.237118 54.929708 -1.927209 -4.011856 -8.253160 -0.000880 -7.599940 -1.316456 -10.039334 5.100791 -13.763581 -8.300774 17.316686 -4.452364 -18.294608 -11.361801 7.983845 -17.102198 -4.847928 -8.741596 20.214178 -67.810413 -22.788485 31.900593 -8.754319 -27.318531 12.732414 22.588758 -2.137021 39.404707 36.074414 15.076603 -24.108608 52.510785 -35.385657 -43.934213 12.718526 -17.455058 
0.018063 -0.709420 0.518001 156.897544 -2.476964 128.559811 15.753438 14.984080 -43.767830 1.295661 26.019137 122.403684 -7.723845 2.496596 7.729998 0.000000 -0.000000 0.000000 -28.275078 -7.529442 -46.117462 -8.728910 0.781080 107.191618 -1.697292 -21.622423 -16.310104 0.000000 -0.000000 0.000000 -5.519573 0.853957 53.403198 -1.960446 -3.536637 -7.723874 0.046002 -7.930552 -1.877571 -9.194773 4.834555 -11.692835 -8.327440 19.175430 -4.295672 -21.963429 -13.812641 9.919318 -16.613692 -5.773482 -8.913850 25.587853 -62.320533 -30.034512 33.489560 -8.567791 -27.293955 14.535967 23.036974 -0.633379 37.889466 35.411300 14.912088 -25.230475 52.535384 -35.959449 -43.883974 12.901359 -16.768373 
0.025132 -0.709410 0.519905 155.150155 -2.243622 128.798431 16.153204 15.523278 -42.725406 1.384474 26.557810 122.367611 -7.601357 2.373754 6.632703 0.000000 -0.000000 0.000000 -28.249000 -6.250377 -47.189746 -8.434857 1.165259 107.442956 -1.515737 -21.824645 -17.150969 0.000000 -0.000000 0.000000 -5.575441 2.166600 52.315084 -2.086615 -2.612927 -7.144943 0.022713 -7.808658 -2.253258 -7.875599 5.765535 -10.720565 -8.448225 19.436464 -2.929565 -24.130433 -14.455347 9.684769 -14.147100 -7.501577 -9.911691 22.346642 -58.608880 -29.796866 30.476009 -8.883732 -26.882225 16.932037 22.726202 0.938232 35.631099 35.665038 14.956230 -25.453133 52.233442 -36.312636 -45.010301 12.772949 -16.612127 
0.031699 -0.708715 0.521762 153.820039 -2.371997 128.754570 16.545158 15.483506 -41.523815 1.421444 26.796499 122.240809 -7.001314 1.837741 4.984318 0.000000 -0.000000 0.000000 -28.369590 -5.346855 -47.551361 -8.451120 1.584880 107.467530 -1.376978 -22.348997 -16.506500 0.000000 -0.000000 0.000000 -5.657405 3.394454 51.804785 -2.096427 -2.125997 -6.590648 0.052121 -7.440868 -2.607468 -7.358142 6.342896 -9.895115 -8.244115 19.628292 -2.454538 -23.590697 -15.479018 8.711056 -13.471174 -8.640367 -9.623406 16.720424 -56.282107 -25.227859 30.071666 -7.825694 -26.252807 16.883237 22.856329 1.054430 36.570172 34.474644 15.626062 -27.930169 51.702466 -38.853384 -43.834539 13.170662 -16.109502 
0.038592 -0.706686 0.524252 152.955735 -2.376139 128.477983 17.005157 15.180908 -40.206013 1.304034 26.275417 121.870300 -5.875919 1.242577 2.863736 0.000000 -0.000000 0.000000 -27.879258 -4.473115 -47.229840 -8.764610 2.054880 107.082746 -1.750468 -22.752940 -16.376271 0.000000 -0.000000 0.000000 -5.733229 3.954525 52.311034 -2.364081 -2.082423 -6.825932 0.394454 -7.109608 -3.503549 -7.884717 6.474108 -7.876164 -7.465632 20.767297 -2.817144 -21.008638 -17.393626 9.288613 -15.412371 -7.992673 -9.514410 12.839959 -53.687995 -21.699148 31.160775 -7.222042 -28.144923 13.869603 24.341730 1.075535 40.251280 33.111219 15.034817 -28.352229 50.581495 -38.868356 -43.596807 14.352634 -16.553668 
0.043933 -0.704902 0.526958 152.470916 -2.570969 128.220969 16.886341 14.297817 -39.513610 0.621988 25.537301 121.402634 -4.345115 1.490391 -0.168769 0.000000 -0.000000 0.000000 -27.491037 -3.998887 -46.666184 -8.757055 2.385179 106.674032 -1.566298 -22.955899 -17.025502 0.000000 -0.000000 0.000000 -6.082960 3.946019 52.696175 -2.416688 -2.283892 -7.085471 0.501648 -6.979577 -3.480725 -8.256312 7.232714 -7.765399 -7.089441 21.527979 -2.409779 -19.604308 -18.555659 9.817408 -16.670098 -7.504902 -9.634564 12.610314 -51.468990 -21.042643 31.966879 -7.022480 -29.488593 12.566413 25.358014 1.130147 42.441237 33.005656 14.939438 -29.094601 49.863329 -38.379242 -42.567108 14.482031 -16.696907 
0.049262 -0.704577 0.529911 152.140016 -2.667648 128.148676 17.116135 13.518945 -39.270226 0.082120 24.975067 121.200413 -3.240671 1.546176 -3.186373 0.000000 -0.000000 0.000000 -27.025230 -3.416198 -46.507727 -8.708698 2.512627 106.399972 -1.586156 -23.553856 -16.528214 0.000000 -0.000000 0.000000 -6.651659 4.697281 52.755739 -2.357169 -2.369031 -6.793269 0.908871 -6.872689 -4.372614 -8.100739 7.550166 -6.085978 -5.996446 22.050623 -2.954471 -20.077098 -19.413447 11.230227 -16.177122 -7.188635 -10.403615 12.600281 -50.152080 -20.619884 31.411795 -7.044684 -30.026845 13.103102 25.761739 2.576440 42.049156 32.868522 13.799624 -29.289354 49.694181 -37.339295 -41.869322 13.565856 -17.287544 
